<?xml version="1.0" encoding="UTF-8" standalone="no"?>
<svg
   width="107"
   height="128"
   viewBox="0 0 107 128"
   version="1.1"
   id="svg2"
   sodipodi:docname="favicon.svg"
   inkscape:version="1.4.2 (ebf0e940d0, 2025-05-08)"
   xmlns:inkscape="http://www.inkscape.org/namespaces/inkscape"
   xmlns:sodipodi="http://sodipodi.sourceforge.net/DTD/sodipodi-0.dtd"
   xmlns:xlink="http://www.w3.org/1999/xlink"
   xmlns="http://www.w3.org/2000/svg"
   xmlns:svg="http://www.w3.org/2000/svg">
  <defs
     id="defs2">
    <linearGradient
       id="swatch3">
      <stop
         style="stop-color:#5e22dd;stop-opacity:1;"
         offset="0"
         id="stop3" />
    </linearGradient>
    <linearGradient
       id="swatch2"
       inkscape:swatch="solid">
      <stop
         style="stop-color:#ff00f8;stop-opacity:1;"
         offset="0"
         id="stop2" />
    </linearGradient>
    <linearGradient
       inkscape:collect="always"
       xlink:href="#swatch2"
       id="linearGradient2"
       x1="8.2136872"
       y1="67.657624"
       x2="94.929193"
       y2="67.657624"
       gradientUnits="userSpaceOnUse" />
    <linearGradient
       inkscape:collect="always"
       xlink:href="#swatch3"
       id="linearGradient4"
       gradientUnits="userSpaceOnUse"
       x1="8.2136872"
       y1="67.657624"
       x2="94.929193"
       y2="67.657624" />
  </defs>
  <sodipodi:namedview
     id="namedview2"
     pagecolor="#ffffff"
     bordercolor="#000000"
     borderopacity="0.25"
     inkscape:showpageshadow="2"
     inkscape:pageopacity="0.0"
     inkscape:pagecheckerboard="0"
     inkscape:deskcolor="#d1d1d1"
     inkscape:zoom="3.1210938"
     inkscape:cx="-14.257822"
     inkscape:cy="22.908636"
     inkscape:window-width="1920"
     inkscape:window-height="1017"
     inkscape:window-x="0"
     inkscape:window-y="0"
     inkscape:window-maximized="1"
     inkscape:current-layer="layer1" />
  <title
     id="title1">svelte-logo</title>
  <path
     d="M 94.157,22.819 C 83.757,7.934 63.217,3.522 48.365,12.984 L 22.282,29.608 A 29.92,29.92 0 0 0 8.764,49.65 31.5,31.5 0 0 0 11.872,69.881 30,30 0 0 0 7.395,81.064 31.9,31.9 0 0 0 12.843,105.18 c 10.402,14.887 30.942,19.297 45.791,9.835 L 84.717,98.391 A 29.92,29.92 0 0 0 98.235,78.35 31.53,31.53 0 0 0 95.13,58.118 30,30 0 0 0 99.604,46.936 31.88,31.88 0 0 0 94.157,22.82"
     style="display:none;fill:#ff3e00"
     id="path1" />
  <path
     d="M 45.817,106.582 A 20.72,20.72 0 0 1 23.58,98.339 19.17,19.17 0 0 1 20.303,83.836 18,18 0 0 1 20.927,81.401 l 0.49,-1.498 1.337,0.981 a 33.6,33.6 0 0 0 10.203,5.098 l 0.97,0.294 -0.09,0.968 a 5.85,5.85 0 0 0 1.052,3.878 6.24,6.24 0 0 0 6.695,2.485 5.8,5.8 0 0 0 1.603,-0.704 L 69.27,76.28 a 5.43,5.43 0 0 0 2.45,-3.631 5.8,5.8 0 0 0 -0.987,-4.371 6.24,6.24 0 0 0 -6.698,-2.487 5.7,5.7 0 0 0 -1.6,0.704 L 52.482,72.84 A 19,19 0 0 1 47.186,75.166 20.72,20.72 0 0 1 24.949,66.923 19.17,19.17 0 0 1 21.672,52.421 17.99,17.99 0 0 1 29.802,40.369 L 55.883,23.746 a 19,19 0 0 1 5.3,-2.329 20.72,20.72 0 0 1 22.237,8.243 19.17,19.17 0 0 1 3.277,14.503 18,18 0 0 1 -0.624,2.435 l -0.49,1.498 -1.337,-0.98 a 33.6,33.6 0 0 0 -10.203,-5.1 l -0.97,-0.294 0.09,-0.968 a 5.86,5.86 0 0 0 -1.052,-3.878 6.24,6.24 0 0 0 -6.696,-2.485 5.8,5.8 0 0 0 -1.602,0.704 L 37.73,51.72 a 5.42,5.42 0 0 0 -2.449,3.63 5.79,5.79 0 0 0 0.986,4.372 6.24,6.24 0 0 0 6.698,2.486 5.8,5.8 0 0 0 1.602,-0.704 l 9.952,-6.342 a 19,19 0 0 1 5.295,-2.328 20.72,20.72 0 0 1 22.237,8.242 19.17,19.17 0 0 1 3.277,14.503 18,18 0 0 1 -8.13,12.053 l -26.081,16.622 a 19,19 0 0 1 -5.3,2.328"
     style="display:none;fill:#ffffff"
     id="path2" />
  <g
     inkscape:groupmode="layer"
     id="layer1"
     inkscape:label="Text">
    <text
       xml:space="preserve"
       style="font-style:normal;font-variant:normal;font-weight:bold;font-stretch:normal;font-size:135.681px;line-height:1.6;font-family:'Fira Code';-inkscape-font-specification:'Fira Code Bold';text-align:start;writing-mode:lr-tb;direction:ltr;text-anchor:start;fill:#ff00f8;fill-opacity:1;stroke:#5e22dd;stroke-width:5.21926;stroke-dasharray:none;stroke-opacity:1"
       x="4.8422856"
       y="107.0854"
       id="text2"
       transform="scale(1.0678704,0.93644321)"><tspan
         sodipodi:role="line"
         id="tspan2"
         x="4.8422856"
         y="107.0854"
         style="font-size:135.681px;fill:#ff00f8;fill-opacity:1;stroke:#5e22dd;stroke-width:5.21926;stroke-dasharray:none;stroke-opacity:1">Q</tspan></text>
  </g>
</svg>
